<mxfile host="app.diagrams.net" modified="2022-03-21T15:27:56.849Z" agent="5.0 (Macintosh; Intel Mac OS X 10_15_7) AppleWebKit/537.36 (KHTML, like Gecko) Chrome/99.0.4844.74 Safari/537.36" etag="Hy1I62-4AdTZH0JbotVf" version="17.1.3" type="github">
  <diagram id="7X0aprmpQkbsL2IaRRZH" name="Page-1">
    <mxGraphModel dx="1825" dy="1098" grid="1" gridSize="10" guides="1" tooltips="1" connect="1" arrows="1" fold="1" page="1" pageScale="1" pageWidth="1654" pageHeight="2336" math="0" shadow="0">
      <root>
        <mxCell id="0" />
        <mxCell id="1" parent="0" />
        <object label="&lt;font color=&quot;#ffffff&quot;&gt;&amp;lt;%type%&amp;gt;&lt;br&gt;%name%&lt;br&gt;%createAt%&lt;br&gt;&lt;/font&gt;" placeholders="1" type="Contract" name="Information Promotion Services Agreement" createAt="create_at" id="3hr6SnEZfDYjpyvEF0oO-1">
          <mxCell style="rounded=1;whiteSpace=wrap;html=1;fillColor=#FF66B3;noLabel=0;comic=0;recursiveResize=1;" vertex="1" parent="1">
            <mxGeometry x="650" y="730" width="170" height="100" as="geometry" />
          </mxCell>
        </object>
        <object label="&lt;font color=&quot;#ffffff&quot;&gt;&amp;lt;%type%&amp;gt;&lt;br&gt;%name%&lt;br&gt;%createAt%&lt;br&gt;%expireAt%&lt;br&gt;&lt;/font&gt;" placeholders="1" type="Fulfilment" name="Start Promotion Request" createAt="create_at" expireAt="expire_at" id="3hr6SnEZfDYjpyvEF0oO-2">
          <mxCell style="rounded=1;whiteSpace=wrap;html=1;fillColor=#FF66B3;noLabel=0;comic=0;recursiveResize=1;" vertex="1" parent="1">
            <mxGeometry x="410.0000000000001" y="550" width="170" height="100" as="geometry" />
          </mxCell>
        </object>
        <object label="&lt;font color=&quot;#ffffff&quot;&gt;&amp;lt;%type%&amp;gt;&lt;br&gt;%name%&lt;br&gt;%createAt%&lt;br&gt;&lt;/font&gt;" placeholders="1" type="Fulfilment" name="Start Promotion Confirmation" createAt="create_at" id="3hr6SnEZfDYjpyvEF0oO-3">
          <mxCell style="rounded=1;whiteSpace=wrap;html=1;fillColor=#FF66B3;noLabel=0;comic=0;recursiveResize=1;" vertex="1" parent="1">
            <mxGeometry x="150" y="550" width="170" height="100" as="geometry" />
          </mxCell>
        </object>
        <mxCell id="3hr6SnEZfDYjpyvEF0oO-4" style="rounded=0;orthogonalLoop=1;jettySize=auto;html=1;exitX=0.5;exitY=0;exitDx=0;exitDy=0;entryX=1;entryY=0.5;entryDx=0;entryDy=0;endArrow=none;endFill=0;edgeStyle=orthogonalEdgeStyle;" edge="1" parent="1" source="3hr6SnEZfDYjpyvEF0oO-1" target="3hr6SnEZfDYjpyvEF0oO-2">
          <mxGeometry relative="1" as="geometry">
            <mxPoint x="770" y="680" as="sourcePoint" />
            <mxPoint x="870" y="680" as="targetPoint" />
          </mxGeometry>
        </mxCell>
        <mxCell id="3hr6SnEZfDYjpyvEF0oO-5" value="1" style="edgeLabel;html=1;align=center;verticalAlign=middle;resizable=0;points=[];" vertex="1" connectable="0" parent="3hr6SnEZfDYjpyvEF0oO-4">
          <mxGeometry x="-0.82" relative="1" as="geometry">
            <mxPoint y="-10" as="offset" />
          </mxGeometry>
        </mxCell>
        <mxCell id="3hr6SnEZfDYjpyvEF0oO-6" value="1" style="edgeLabel;html=1;align=center;verticalAlign=middle;resizable=0;points=[];" vertex="1" connectable="0" parent="3hr6SnEZfDYjpyvEF0oO-4">
          <mxGeometry x="0.72" y="-1" relative="1" as="geometry">
            <mxPoint y="-11" as="offset" />
          </mxGeometry>
        </mxCell>
        <mxCell id="3hr6SnEZfDYjpyvEF0oO-7" style="edgeStyle=orthogonalEdgeStyle;rounded=0;orthogonalLoop=1;jettySize=auto;html=1;exitX=0;exitY=0.5;exitDx=0;exitDy=0;endArrow=none;endFill=0;entryX=1;entryY=0.5;entryDx=0;entryDy=0;" edge="1" parent="1" source="3hr6SnEZfDYjpyvEF0oO-2" target="3hr6SnEZfDYjpyvEF0oO-3">
          <mxGeometry relative="1" as="geometry">
            <mxPoint x="1067.67" y="550" as="sourcePoint" />
            <mxPoint x="1107.67" y="550" as="targetPoint" />
          </mxGeometry>
        </mxCell>
        <mxCell id="3hr6SnEZfDYjpyvEF0oO-8" value="1" style="edgeLabel;html=1;align=center;verticalAlign=middle;resizable=0;points=[];" vertex="1" connectable="0" parent="3hr6SnEZfDYjpyvEF0oO-7">
          <mxGeometry x="-0.82" relative="1" as="geometry">
            <mxPoint y="-10" as="offset" />
          </mxGeometry>
        </mxCell>
        <mxCell id="3hr6SnEZfDYjpyvEF0oO-9" value="1" style="edgeLabel;html=1;align=center;verticalAlign=middle;resizable=0;points=[];" vertex="1" connectable="0" parent="3hr6SnEZfDYjpyvEF0oO-7">
          <mxGeometry x="0.72" y="-1" relative="1" as="geometry">
            <mxPoint y="-11" as="offset" />
          </mxGeometry>
        </mxCell>
        <object label="&lt;font color=&quot;#ffffff&quot;&gt;&amp;lt;%type%&amp;gt;&lt;br&gt;%name%&lt;br&gt;%createAt%&lt;br&gt;%expireAt%&lt;br&gt;&lt;/font&gt;" placeholders="1" type="Fulfilment" name="Stop promotion Request" createAt="create_at" expireAt="expire_at" id="3hr6SnEZfDYjpyvEF0oO-10">
          <mxCell style="rounded=1;whiteSpace=wrap;html=1;fillColor=#FF66B3;noLabel=0;comic=0;recursiveResize=1;" vertex="1" parent="1">
            <mxGeometry x="405" y="890" width="180" height="100" as="geometry" />
          </mxCell>
        </object>
        <object label="&lt;font color=&quot;#ffffff&quot;&gt;&amp;lt;%type%&amp;gt;&lt;br&gt;%name%&lt;br&gt;%createAt%&lt;br&gt;&lt;/font&gt;" placeholders="1" type="Fulfilment" name="Stop Promotion Confirmation" createAt="create_at" id="3hr6SnEZfDYjpyvEF0oO-11">
          <mxCell style="rounded=1;whiteSpace=wrap;html=1;fillColor=#FF66B3;noLabel=0;comic=0;recursiveResize=1;" vertex="1" parent="1">
            <mxGeometry x="160" y="890" width="170" height="100" as="geometry" />
          </mxCell>
        </object>
        <mxCell id="3hr6SnEZfDYjpyvEF0oO-12" style="edgeStyle=orthogonalEdgeStyle;rounded=0;orthogonalLoop=1;jettySize=auto;html=1;exitX=0;exitY=0.5;exitDx=0;exitDy=0;endArrow=none;endFill=0;entryX=1;entryY=0.5;entryDx=0;entryDy=0;" edge="1" parent="1" source="3hr6SnEZfDYjpyvEF0oO-10" target="3hr6SnEZfDYjpyvEF0oO-11">
          <mxGeometry relative="1" as="geometry">
            <mxPoint x="1120" y="680" as="sourcePoint" />
            <mxPoint x="1160" y="680" as="targetPoint" />
          </mxGeometry>
        </mxCell>
        <mxCell id="3hr6SnEZfDYjpyvEF0oO-13" value="1" style="edgeLabel;html=1;align=center;verticalAlign=middle;resizable=0;points=[];" vertex="1" connectable="0" parent="3hr6SnEZfDYjpyvEF0oO-12">
          <mxGeometry x="-0.82" relative="1" as="geometry">
            <mxPoint y="-10" as="offset" />
          </mxGeometry>
        </mxCell>
        <mxCell id="3hr6SnEZfDYjpyvEF0oO-14" value="1" style="edgeLabel;html=1;align=center;verticalAlign=middle;resizable=0;points=[];" vertex="1" connectable="0" parent="3hr6SnEZfDYjpyvEF0oO-12">
          <mxGeometry x="0.72" y="-1" relative="1" as="geometry">
            <mxPoint y="-11" as="offset" />
          </mxGeometry>
        </mxCell>
        <mxCell id="3hr6SnEZfDYjpyvEF0oO-15" style="edgeStyle=orthogonalEdgeStyle;rounded=0;orthogonalLoop=1;jettySize=auto;html=1;exitX=0.25;exitY=1;exitDx=0;exitDy=0;entryX=1;entryY=0.5;entryDx=0;entryDy=0;endArrow=none;endFill=0;" edge="1" parent="1" source="3hr6SnEZfDYjpyvEF0oO-1" target="3hr6SnEZfDYjpyvEF0oO-10">
          <mxGeometry relative="1" as="geometry">
            <mxPoint x="765" y="710" as="sourcePoint" />
            <mxPoint x="910" y="650" as="targetPoint" />
          </mxGeometry>
        </mxCell>
        <mxCell id="3hr6SnEZfDYjpyvEF0oO-16" value="1" style="edgeLabel;html=1;align=center;verticalAlign=middle;resizable=0;points=[];" vertex="1" connectable="0" parent="3hr6SnEZfDYjpyvEF0oO-15">
          <mxGeometry x="-0.82" relative="1" as="geometry">
            <mxPoint y="-10" as="offset" />
          </mxGeometry>
        </mxCell>
        <mxCell id="3hr6SnEZfDYjpyvEF0oO-17" value="1" style="edgeLabel;html=1;align=center;verticalAlign=middle;resizable=0;points=[];" vertex="1" connectable="0" parent="3hr6SnEZfDYjpyvEF0oO-15">
          <mxGeometry x="0.72" y="-1" relative="1" as="geometry">
            <mxPoint y="-11" as="offset" />
          </mxGeometry>
        </mxCell>
        <object label="&lt;font color=&quot;#ffffff&quot;&gt;&amp;lt;%type%&amp;gt;&lt;br&gt;%name%&lt;br&gt;%createAt%&lt;br&gt;%expireAt%&lt;br&gt;&lt;/font&gt;" placeholders="1" type="Fulfilment" name="Charge Request" createAt="create_at" expireAt="expire_at" id="3hr6SnEZfDYjpyvEF0oO-18">
          <mxCell style="rounded=1;whiteSpace=wrap;html=1;fillColor=#FF66B3;noLabel=0;comic=0;recursiveResize=1;" vertex="1" parent="1">
            <mxGeometry x="910" y="550" width="170" height="100" as="geometry" />
          </mxCell>
        </object>
        <object label="&lt;font color=&quot;#ffffff&quot;&gt;&amp;lt;%type%&amp;gt;&lt;br&gt;%name%&lt;br&gt;%createAt%&lt;br&gt;&lt;/font&gt;" placeholders="1" type="Fulfilment" name="Wechat Payment Confirmation" createAt="create_at" id="3hr6SnEZfDYjpyvEF0oO-19">
          <mxCell style="rounded=1;whiteSpace=wrap;html=1;fillColor=#FF66B3;noLabel=0;comic=0;recursiveResize=1;" vertex="1" parent="1">
            <mxGeometry x="910" y="380" width="170" height="100" as="geometry" />
          </mxCell>
        </object>
        <mxCell id="3hr6SnEZfDYjpyvEF0oO-20" style="edgeStyle=orthogonalEdgeStyle;rounded=0;orthogonalLoop=1;jettySize=auto;html=1;exitX=1;exitY=0.5;exitDx=0;exitDy=0;endArrow=none;endFill=0;entryX=0;entryY=0.5;entryDx=0;entryDy=0;" edge="1" parent="1" source="3hr6SnEZfDYjpyvEF0oO-18" target="3hr6SnEZfDYjpyvEF0oO-69">
          <mxGeometry relative="1" as="geometry">
            <mxPoint x="1120" y="790" as="sourcePoint" />
            <mxPoint x="1160" y="790" as="targetPoint" />
          </mxGeometry>
        </mxCell>
        <mxCell id="3hr6SnEZfDYjpyvEF0oO-21" value="1" style="edgeLabel;html=1;align=center;verticalAlign=middle;resizable=0;points=[];" vertex="1" connectable="0" parent="3hr6SnEZfDYjpyvEF0oO-20">
          <mxGeometry x="-0.82" relative="1" as="geometry">
            <mxPoint y="-10" as="offset" />
          </mxGeometry>
        </mxCell>
        <mxCell id="3hr6SnEZfDYjpyvEF0oO-22" value="1" style="edgeLabel;html=1;align=center;verticalAlign=middle;resizable=0;points=[];" vertex="1" connectable="0" parent="3hr6SnEZfDYjpyvEF0oO-20">
          <mxGeometry x="0.72" y="-1" relative="1" as="geometry">
            <mxPoint y="-11" as="offset" />
          </mxGeometry>
        </mxCell>
        <mxCell id="3hr6SnEZfDYjpyvEF0oO-23" style="edgeStyle=orthogonalEdgeStyle;rounded=0;orthogonalLoop=1;jettySize=auto;html=1;exitX=0.75;exitY=0;exitDx=0;exitDy=0;entryX=0;entryY=0.5;entryDx=0;entryDy=0;endArrow=none;endFill=0;" edge="1" parent="1" source="3hr6SnEZfDYjpyvEF0oO-1" target="3hr6SnEZfDYjpyvEF0oO-18">
          <mxGeometry relative="1" as="geometry">
            <mxPoint x="840" y="800" as="sourcePoint" />
            <mxPoint x="915" y="800" as="targetPoint" />
          </mxGeometry>
        </mxCell>
        <mxCell id="3hr6SnEZfDYjpyvEF0oO-24" value="1" style="edgeLabel;html=1;align=center;verticalAlign=middle;resizable=0;points=[];" vertex="1" connectable="0" parent="3hr6SnEZfDYjpyvEF0oO-23">
          <mxGeometry x="-0.82" relative="1" as="geometry">
            <mxPoint y="-10" as="offset" />
          </mxGeometry>
        </mxCell>
        <mxCell id="3hr6SnEZfDYjpyvEF0oO-25" value="1" style="edgeLabel;html=1;align=center;verticalAlign=middle;resizable=0;points=[];" vertex="1" connectable="0" parent="3hr6SnEZfDYjpyvEF0oO-23">
          <mxGeometry x="0.72" y="-1" relative="1" as="geometry">
            <mxPoint y="-11" as="offset" />
          </mxGeometry>
        </mxCell>
        <object label="&lt;font color=&quot;#ffffff&quot;&gt;&amp;lt;%type%&amp;gt;&lt;br&gt;%name%&lt;br&gt;%createAt%&lt;br&gt;%expireAt%&lt;br&gt;&lt;/font&gt;" placeholders="1" type="Fulfilment" name="Check data Request" createAt="create_at" expireAt="expire_at" id="3hr6SnEZfDYjpyvEF0oO-26">
          <mxCell style="rounded=1;whiteSpace=wrap;html=1;fillColor=#FF66B3;noLabel=0;comic=0;recursiveResize=1;" vertex="1" parent="1">
            <mxGeometry x="425" y="1180" width="170" height="100" as="geometry" />
          </mxCell>
        </object>
        <object label="&lt;font color=&quot;#ffffff&quot;&gt;&amp;lt;%type%&amp;gt;&lt;br&gt;%name%&lt;br&gt;%createAt%&lt;br&gt;%clicks%&lt;br&gt;&lt;/font&gt;" type="Fulfilment" name="Check data Confirmation" createAt="create_at" placeholders="1" clicks="clicks_count" id="3hr6SnEZfDYjpyvEF0oO-27">
          <mxCell style="rounded=1;whiteSpace=wrap;html=1;fillColor=#FF66B3;noLabel=0;comic=0;recursiveResize=1;" vertex="1" parent="1">
            <mxGeometry x="190" y="1180" width="170" height="100" as="geometry" />
          </mxCell>
        </object>
        <mxCell id="3hr6SnEZfDYjpyvEF0oO-28" style="edgeStyle=orthogonalEdgeStyle;rounded=0;orthogonalLoop=1;jettySize=auto;html=1;exitX=0;exitY=0.5;exitDx=0;exitDy=0;endArrow=none;endFill=0;entryX=1;entryY=0.5;entryDx=0;entryDy=0;" edge="1" parent="1" source="3hr6SnEZfDYjpyvEF0oO-26" target="3hr6SnEZfDYjpyvEF0oO-27">
          <mxGeometry relative="1" as="geometry">
            <mxPoint x="1080" y="1000" as="sourcePoint" />
            <mxPoint x="1120" y="1000" as="targetPoint" />
          </mxGeometry>
        </mxCell>
        <mxCell id="3hr6SnEZfDYjpyvEF0oO-29" value="1" style="edgeLabel;html=1;align=center;verticalAlign=middle;resizable=0;points=[];" vertex="1" connectable="0" parent="3hr6SnEZfDYjpyvEF0oO-28">
          <mxGeometry x="-0.82" relative="1" as="geometry">
            <mxPoint y="-10" as="offset" />
          </mxGeometry>
        </mxCell>
        <mxCell id="3hr6SnEZfDYjpyvEF0oO-30" value="1" style="edgeLabel;html=1;align=center;verticalAlign=middle;resizable=0;points=[];" vertex="1" connectable="0" parent="3hr6SnEZfDYjpyvEF0oO-28">
          <mxGeometry x="0.72" y="-1" relative="1" as="geometry">
            <mxPoint y="-11" as="offset" />
          </mxGeometry>
        </mxCell>
        <object label="&lt;font color=&quot;#ffffff&quot;&gt;&amp;lt;%type%&amp;gt;&lt;br&gt;%name%&lt;br&gt;%createAt%&lt;br&gt;%expireAt%&lt;br&gt;&lt;/font&gt;" placeholders="1" type="Fulfilment" name="Refund Request" createAt="create_at" expireAt="expire_at" id="3hr6SnEZfDYjpyvEF0oO-31">
          <mxCell style="rounded=1;whiteSpace=wrap;html=1;fillColor=#FF66B3;noLabel=0;comic=0;recursiveResize=1;" vertex="1" parent="1">
            <mxGeometry x="910" y="730" width="170" height="100" as="geometry" />
          </mxCell>
        </object>
        <object label="&lt;font color=&quot;#ffffff&quot;&gt;&amp;lt;%type%&amp;gt;&lt;br&gt;%name%&lt;br&gt;%amount%&lt;br&gt;%createAt%&lt;br&gt;&lt;/font&gt;" placeholders="1" type="Fulfilment" name="Refund Confirmation" createAt="create_at" amount="amount" id="3hr6SnEZfDYjpyvEF0oO-32">
          <mxCell style="rounded=1;whiteSpace=wrap;html=1;fillColor=#FF66B3;noLabel=0;comic=0;recursiveResize=1;" vertex="1" parent="1">
            <mxGeometry x="1190" y="730" width="170" height="100" as="geometry" />
          </mxCell>
        </object>
        <mxCell id="3hr6SnEZfDYjpyvEF0oO-33" style="edgeStyle=orthogonalEdgeStyle;rounded=0;orthogonalLoop=1;jettySize=auto;html=1;exitX=1;exitY=0.5;exitDx=0;exitDy=0;endArrow=none;endFill=0;entryX=0;entryY=0.5;entryDx=0;entryDy=0;" edge="1" parent="1" source="3hr6SnEZfDYjpyvEF0oO-31" target="3hr6SnEZfDYjpyvEF0oO-32">
          <mxGeometry relative="1" as="geometry">
            <mxPoint x="1240" y="650" as="sourcePoint" />
            <mxPoint x="1280" y="650" as="targetPoint" />
          </mxGeometry>
        </mxCell>
        <mxCell id="3hr6SnEZfDYjpyvEF0oO-34" value="1" style="edgeLabel;html=1;align=center;verticalAlign=middle;resizable=0;points=[];" vertex="1" connectable="0" parent="3hr6SnEZfDYjpyvEF0oO-33">
          <mxGeometry x="-0.82" relative="1" as="geometry">
            <mxPoint y="-10" as="offset" />
          </mxGeometry>
        </mxCell>
        <mxCell id="3hr6SnEZfDYjpyvEF0oO-35" value="1" style="edgeLabel;html=1;align=center;verticalAlign=middle;resizable=0;points=[];" vertex="1" connectable="0" parent="3hr6SnEZfDYjpyvEF0oO-33">
          <mxGeometry x="0.72" y="-1" relative="1" as="geometry">
            <mxPoint y="-11" as="offset" />
          </mxGeometry>
        </mxCell>
        <mxCell id="3hr6SnEZfDYjpyvEF0oO-36" style="rounded=0;orthogonalLoop=1;jettySize=auto;html=1;exitX=0.5;exitY=1;exitDx=0;exitDy=0;endArrow=none;endFill=0;entryX=1;entryY=0.5;entryDx=0;entryDy=0;edgeStyle=orthogonalEdgeStyle;" edge="1" parent="1" source="3hr6SnEZfDYjpyvEF0oO-1" target="3hr6SnEZfDYjpyvEF0oO-26">
          <mxGeometry relative="1" as="geometry">
            <mxPoint x="745" y="840" as="sourcePoint" />
            <mxPoint x="550" y="1250" as="targetPoint" />
          </mxGeometry>
        </mxCell>
        <mxCell id="3hr6SnEZfDYjpyvEF0oO-37" value="1" style="edgeLabel;html=1;align=center;verticalAlign=middle;resizable=0;points=[];" vertex="1" connectable="0" parent="3hr6SnEZfDYjpyvEF0oO-36">
          <mxGeometry x="-0.82" relative="1" as="geometry">
            <mxPoint y="-10" as="offset" />
          </mxGeometry>
        </mxCell>
        <mxCell id="3hr6SnEZfDYjpyvEF0oO-38" value="1" style="edgeLabel;html=1;align=center;verticalAlign=middle;resizable=0;points=[];" vertex="1" connectable="0" parent="3hr6SnEZfDYjpyvEF0oO-36">
          <mxGeometry x="0.72" y="-1" relative="1" as="geometry">
            <mxPoint y="-11" as="offset" />
          </mxGeometry>
        </mxCell>
        <mxCell id="3hr6SnEZfDYjpyvEF0oO-39" style="edgeStyle=orthogonalEdgeStyle;rounded=0;orthogonalLoop=1;jettySize=auto;html=1;exitX=1;exitY=0.5;exitDx=0;exitDy=0;entryX=0;entryY=0.5;entryDx=0;entryDy=0;endArrow=none;endFill=0;" edge="1" parent="1" source="3hr6SnEZfDYjpyvEF0oO-1" target="3hr6SnEZfDYjpyvEF0oO-31">
          <mxGeometry relative="1" as="geometry">
            <mxPoint x="755" y="850" as="sourcePoint" />
            <mxPoint x="915" y="920" as="targetPoint" />
          </mxGeometry>
        </mxCell>
        <mxCell id="3hr6SnEZfDYjpyvEF0oO-40" value="1" style="edgeLabel;html=1;align=center;verticalAlign=middle;resizable=0;points=[];" vertex="1" connectable="0" parent="3hr6SnEZfDYjpyvEF0oO-39">
          <mxGeometry x="-0.82" relative="1" as="geometry">
            <mxPoint y="-10" as="offset" />
          </mxGeometry>
        </mxCell>
        <mxCell id="3hr6SnEZfDYjpyvEF0oO-41" value="1" style="edgeLabel;html=1;align=center;verticalAlign=middle;resizable=0;points=[];" vertex="1" connectable="0" parent="3hr6SnEZfDYjpyvEF0oO-39">
          <mxGeometry x="0.72" y="-1" relative="1" as="geometry">
            <mxPoint y="-11" as="offset" />
          </mxGeometry>
        </mxCell>
        <object label="&lt;font color=&quot;#ffffff&quot;&gt;&amp;lt;%type%&amp;gt;&lt;br&gt;%name%&lt;br&gt;%createAt%&lt;br&gt;%expireAt%&lt;br&gt;&lt;/font&gt;" placeholders="1" type="Fulfilment" name="Deduction Request" createAt="create_at" expireAt="expire_at" id="3hr6SnEZfDYjpyvEF0oO-42">
          <mxCell style="rounded=1;whiteSpace=wrap;html=1;fillColor=#FF66B3;noLabel=0;comic=0;recursiveResize=1;" vertex="1" parent="1">
            <mxGeometry x="980" y="870" width="170" height="100" as="geometry" />
          </mxCell>
        </object>
        <object label="&lt;font color=&quot;#ffffff&quot;&gt;&amp;lt;%type%&amp;gt;&lt;br&gt;%name%&lt;br&gt;%amount%&lt;br&gt;%createAt%&lt;br&gt;&lt;/font&gt;" placeholders="1" type="Fulfilment" name="Deduction Confirmation" createAt="create_at" amount="amount" id="3hr6SnEZfDYjpyvEF0oO-43">
          <mxCell style="rounded=1;whiteSpace=wrap;html=1;fillColor=#FF66B3;noLabel=0;comic=0;recursiveResize=1;" vertex="1" parent="1">
            <mxGeometry x="1280" y="870" width="170" height="100" as="geometry" />
          </mxCell>
        </object>
        <mxCell id="3hr6SnEZfDYjpyvEF0oO-44" style="edgeStyle=orthogonalEdgeStyle;rounded=0;orthogonalLoop=1;jettySize=auto;html=1;exitX=1;exitY=0.5;exitDx=0;exitDy=0;endArrow=none;endFill=0;entryX=0;entryY=0.5;entryDx=0;entryDy=0;" edge="1" parent="1" source="3hr6SnEZfDYjpyvEF0oO-42" target="3hr6SnEZfDYjpyvEF0oO-43">
          <mxGeometry relative="1" as="geometry">
            <mxPoint x="1415" y="740" as="sourcePoint" />
            <mxPoint x="1455" y="740" as="targetPoint" />
          </mxGeometry>
        </mxCell>
        <mxCell id="3hr6SnEZfDYjpyvEF0oO-45" value="1" style="edgeLabel;html=1;align=center;verticalAlign=middle;resizable=0;points=[];" vertex="1" connectable="0" parent="3hr6SnEZfDYjpyvEF0oO-44">
          <mxGeometry x="-0.82" relative="1" as="geometry">
            <mxPoint y="-10" as="offset" />
          </mxGeometry>
        </mxCell>
        <mxCell id="3hr6SnEZfDYjpyvEF0oO-46" value="1" style="edgeLabel;html=1;align=center;verticalAlign=middle;resizable=0;points=[];" vertex="1" connectable="0" parent="3hr6SnEZfDYjpyvEF0oO-44">
          <mxGeometry x="0.72" y="-1" relative="1" as="geometry">
            <mxPoint y="-11" as="offset" />
          </mxGeometry>
        </mxCell>
        <mxCell id="3hr6SnEZfDYjpyvEF0oO-47" style="edgeStyle=orthogonalEdgeStyle;rounded=0;orthogonalLoop=1;jettySize=auto;html=1;exitX=0.75;exitY=1;exitDx=0;exitDy=0;endArrow=none;endFill=0;entryX=0;entryY=0.5;entryDx=0;entryDy=0;" edge="1" parent="1" source="3hr6SnEZfDYjpyvEF0oO-1" target="3hr6SnEZfDYjpyvEF0oO-42">
          <mxGeometry relative="1" as="geometry">
            <mxPoint x="702.5" y="840" as="sourcePoint" />
            <mxPoint x="905" y="1150" as="targetPoint" />
          </mxGeometry>
        </mxCell>
        <mxCell id="3hr6SnEZfDYjpyvEF0oO-48" value="1" style="edgeLabel;html=1;align=center;verticalAlign=middle;resizable=0;points=[];" vertex="1" connectable="0" parent="3hr6SnEZfDYjpyvEF0oO-47">
          <mxGeometry x="-0.82" relative="1" as="geometry">
            <mxPoint y="-10" as="offset" />
          </mxGeometry>
        </mxCell>
        <mxCell id="3hr6SnEZfDYjpyvEF0oO-49" value="1" style="edgeLabel;html=1;align=center;verticalAlign=middle;resizable=0;points=[];" vertex="1" connectable="0" parent="3hr6SnEZfDYjpyvEF0oO-47">
          <mxGeometry x="0.72" y="-1" relative="1" as="geometry">
            <mxPoint y="-11" as="offset" />
          </mxGeometry>
        </mxCell>
        <object label="&lt;font color=&quot;#ffffff&quot;&gt;&amp;lt;%type%&amp;gt;&lt;br&gt;%name%&lt;br&gt;%createAt%&lt;br&gt;%expireAt%&lt;br&gt;&lt;/font&gt;" placeholders="1" type="Fulfilment" name="Invoice Request" createAt="create_at" expireAt="expire_at" id="3hr6SnEZfDYjpyvEF0oO-50">
          <mxCell style="rounded=1;whiteSpace=wrap;html=1;fillColor=#FF66B3;noLabel=0;comic=0;recursiveResize=1;" vertex="1" parent="1">
            <mxGeometry x="1080" y="1015" width="170" height="100" as="geometry" />
          </mxCell>
        </object>
        <object label="&lt;font color=&quot;#ffffff&quot;&gt;&amp;lt;%type%&amp;gt;&lt;br&gt;%name%&lt;br&gt;%createAt%&lt;br&gt;&lt;/font&gt;" placeholders="1" type="Fulfilment" name="Invoice Confirmation" createAt="create_at" id="3hr6SnEZfDYjpyvEF0oO-51">
          <mxCell style="rounded=1;whiteSpace=wrap;html=1;fillColor=#FF66B3;noLabel=0;comic=0;recursiveResize=1;" vertex="1" parent="1">
            <mxGeometry x="1370" y="1015" width="170" height="100" as="geometry" />
          </mxCell>
        </object>
        <mxCell id="3hr6SnEZfDYjpyvEF0oO-52" style="edgeStyle=orthogonalEdgeStyle;rounded=0;orthogonalLoop=1;jettySize=auto;html=1;exitX=1;exitY=0.5;exitDx=0;exitDy=0;endArrow=none;endFill=0;entryX=0;entryY=0.5;entryDx=0;entryDy=0;" edge="1" parent="1" source="3hr6SnEZfDYjpyvEF0oO-50" target="3hr6SnEZfDYjpyvEF0oO-51">
          <mxGeometry relative="1" as="geometry">
            <mxPoint x="1340" y="875" as="sourcePoint" />
            <mxPoint x="1380" y="875" as="targetPoint" />
          </mxGeometry>
        </mxCell>
        <mxCell id="3hr6SnEZfDYjpyvEF0oO-53" value="1" style="edgeLabel;html=1;align=center;verticalAlign=middle;resizable=0;points=[];" vertex="1" connectable="0" parent="3hr6SnEZfDYjpyvEF0oO-52">
          <mxGeometry x="-0.82" relative="1" as="geometry">
            <mxPoint y="-10" as="offset" />
          </mxGeometry>
        </mxCell>
        <mxCell id="3hr6SnEZfDYjpyvEF0oO-54" value="1" style="edgeLabel;html=1;align=center;verticalAlign=middle;resizable=0;points=[];" vertex="1" connectable="0" parent="3hr6SnEZfDYjpyvEF0oO-52">
          <mxGeometry x="0.72" y="-1" relative="1" as="geometry">
            <mxPoint y="-11" as="offset" />
          </mxGeometry>
        </mxCell>
        <object label="&lt;font color=&quot;#ffffff&quot;&gt;&amp;lt;%type%&amp;gt;&lt;br&gt;&lt;br&gt;&lt;b&gt;%name%&lt;/b&gt;&lt;br&gt;&lt;/font&gt;" placeholders="1" type="party" name="Registered User" id="3hr6SnEZfDYjpyvEF0oO-55">
          <mxCell style="rounded=1;whiteSpace=wrap;html=1;noLabel=0;comic=0;recursiveResize=1;fillColor=#00994D;" vertex="1" parent="1">
            <mxGeometry x="160" y="730" width="170" height="100" as="geometry" />
          </mxCell>
        </object>
        <mxCell id="3hr6SnEZfDYjpyvEF0oO-56" style="edgeStyle=orthogonalEdgeStyle;rounded=0;orthogonalLoop=1;jettySize=auto;html=1;entryX=0;entryY=0.5;entryDx=0;entryDy=0;endArrow=none;endFill=0;exitX=1;exitY=0.5;exitDx=0;exitDy=0;" edge="1" parent="1" source="3hr6SnEZfDYjpyvEF0oO-59" target="3hr6SnEZfDYjpyvEF0oO-1">
          <mxGeometry relative="1" as="geometry">
            <mxPoint x="590" y="920" as="sourcePoint" />
            <mxPoint x="690" y="920" as="targetPoint" />
          </mxGeometry>
        </mxCell>
        <mxCell id="3hr6SnEZfDYjpyvEF0oO-57" value="1" style="edgeLabel;html=1;align=center;verticalAlign=middle;resizable=0;points=[];" vertex="1" connectable="0" parent="3hr6SnEZfDYjpyvEF0oO-56">
          <mxGeometry x="-0.82" relative="1" as="geometry">
            <mxPoint y="-10" as="offset" />
          </mxGeometry>
        </mxCell>
        <mxCell id="3hr6SnEZfDYjpyvEF0oO-58" value="1" style="edgeLabel;html=1;align=center;verticalAlign=middle;resizable=0;points=[];" vertex="1" connectable="0" parent="3hr6SnEZfDYjpyvEF0oO-56">
          <mxGeometry x="0.72" y="-1" relative="1" as="geometry">
            <mxPoint y="-11" as="offset" />
          </mxGeometry>
        </mxCell>
        <object label="&lt;font color=&quot;#ffffff&quot;&gt;&amp;lt;%type%&amp;gt;&lt;br&gt;&lt;br&gt;&lt;b&gt;%name%&lt;/b&gt;&lt;br&gt;&lt;/font&gt;" placeholders="1" type="party" name="Agent" id="3hr6SnEZfDYjpyvEF0oO-59">
          <mxCell style="rounded=1;whiteSpace=wrap;html=1;noLabel=0;comic=0;recursiveResize=1;fillColor=#FFA033;" vertex="1" parent="1">
            <mxGeometry x="410" y="730" width="170" height="100" as="geometry" />
          </mxCell>
        </object>
        <mxCell id="3hr6SnEZfDYjpyvEF0oO-60" style="edgeStyle=none;rounded=0;orthogonalLoop=1;jettySize=auto;html=1;exitX=1;exitY=0.5;exitDx=0;exitDy=0;endArrow=block;endFill=0;dashed=1;entryX=0;entryY=0.5;entryDx=0;entryDy=0;" edge="1" parent="1" source="3hr6SnEZfDYjpyvEF0oO-55" target="3hr6SnEZfDYjpyvEF0oO-59">
          <mxGeometry relative="1" as="geometry">
            <mxPoint x="570" y="850" as="sourcePoint" />
            <mxPoint x="640" y="850" as="targetPoint" />
          </mxGeometry>
        </mxCell>
        <object label="" n="1" m="*" id="3hr6SnEZfDYjpyvEF0oO-61">
          <mxCell style="edgeStyle=orthogonalEdgeStyle;rounded=0;orthogonalLoop=1;jettySize=auto;html=1;exitX=0.5;exitY=0;exitDx=0;exitDy=0;endArrow=none;endFill=0;entryX=0.5;entryY=1;entryDx=0;entryDy=0;" edge="1" parent="1" source="3hr6SnEZfDYjpyvEF0oO-59" target="3hr6SnEZfDYjpyvEF0oO-2">
            <mxGeometry relative="1" as="geometry">
              <mxPoint x="460" y="660" as="sourcePoint" />
              <mxPoint x="550" y="660" as="targetPoint" />
            </mxGeometry>
          </mxCell>
        </object>
        <mxCell id="3hr6SnEZfDYjpyvEF0oO-62" value="1" style="edgeLabel;html=1;align=center;verticalAlign=middle;resizable=0;points=[];" vertex="1" connectable="0" parent="3hr6SnEZfDYjpyvEF0oO-61">
          <mxGeometry x="0.1538" y="3" relative="1" as="geometry">
            <mxPoint x="-2" y="36" as="offset" />
          </mxGeometry>
        </mxCell>
        <mxCell id="3hr6SnEZfDYjpyvEF0oO-63" value="N" style="edgeLabel;html=1;align=center;verticalAlign=middle;resizable=0;points=[];" vertex="1" connectable="0" parent="3hr6SnEZfDYjpyvEF0oO-61">
          <mxGeometry x="0.1538" relative="1" as="geometry">
            <mxPoint x="-5" y="-23" as="offset" />
          </mxGeometry>
        </mxCell>
        <mxCell id="3hr6SnEZfDYjpyvEF0oO-64" value="&lt;font color=&quot;#ffffff&quot;&gt;Agent&lt;/font&gt;" style="rounded=1;whiteSpace=wrap;html=1;fillColor=#FFa033;strokeColor=#000000;" vertex="1" parent="1">
          <mxGeometry x="555" y="1258" width="50" height="30" as="geometry" />
        </mxCell>
        <mxCell id="3hr6SnEZfDYjpyvEF0oO-65" style="edgeStyle=orthogonalEdgeStyle;rounded=0;orthogonalLoop=1;jettySize=auto;html=1;entryX=0;entryY=0.5;entryDx=0;entryDy=0;endArrow=none;endFill=0;fontColor=#FFFFFF;exitX=0.64;exitY=0.997;exitDx=0;exitDy=0;exitPerimeter=0;" edge="1" parent="1" source="3hr6SnEZfDYjpyvEF0oO-1" target="3hr6SnEZfDYjpyvEF0oO-50">
          <mxGeometry relative="1" as="geometry">
            <mxPoint x="790" y="960" as="sourcePoint" />
            <mxPoint x="970" y="970" as="targetPoint" />
          </mxGeometry>
        </mxCell>
        <mxCell id="3hr6SnEZfDYjpyvEF0oO-66" value="1" style="edgeLabel;html=1;align=center;verticalAlign=middle;resizable=0;points=[];labelBackgroundColor=#FFFFFF;fontColor=#000000;strokeColor=#000000;fillColor=#FFa033;" vertex="1" connectable="0" parent="3hr6SnEZfDYjpyvEF0oO-65">
          <mxGeometry x="-0.82" relative="1" as="geometry">
            <mxPoint y="-10" as="offset" />
          </mxGeometry>
        </mxCell>
        <mxCell id="3hr6SnEZfDYjpyvEF0oO-67" value="1" style="edgeLabel;html=1;align=center;verticalAlign=middle;resizable=0;points=[];labelBackgroundColor=#FFFFFF;fontColor=#000000;strokeColor=#000000;fillColor=#FFa033;" vertex="1" connectable="0" parent="3hr6SnEZfDYjpyvEF0oO-65">
          <mxGeometry x="0.72" y="-1" relative="1" as="geometry">
            <mxPoint y="-11" as="offset" />
          </mxGeometry>
        </mxCell>
        <mxCell id="3hr6SnEZfDYjpyvEF0oO-68" value="&lt;font color=&quot;#ffffff&quot;&gt;Agent&lt;/font&gt;" style="rounded=1;whiteSpace=wrap;html=1;fillColor=#FFa033;strokeColor=#000000;" vertex="1" parent="1">
          <mxGeometry x="1210" y="1095" width="50" height="30" as="geometry" />
        </mxCell>
        <object label="&lt;font color=&quot;#ffffff&quot;&gt;&lt;span&gt;&amp;lt;%type%&amp;gt;&lt;br&gt;&lt;br&gt;&lt;b&gt;%name%&lt;br&gt;&lt;/b&gt;%amount%&lt;br&gt;%createAt%&lt;/span&gt;&lt;br&gt;&lt;/font&gt;" placeholders="1" type="evidence" name="Charge Confirmation" createAt="created_at" amount="amount" id="3hr6SnEZfDYjpyvEF0oO-69">
          <mxCell style="rounded=1;whiteSpace=wrap;html=1;noLabel=0;comic=0;recursiveResize=1;fillColor=#FFA033;labelBackgroundColor=#FFA033;fontColor=#000000;strokeColor=#000000;" vertex="1" parent="1">
            <mxGeometry x="1140" y="550" width="170" height="100" as="geometry" />
          </mxCell>
        </object>
        <object label="&lt;font color=&quot;#ffffff&quot;&gt;&amp;lt;%type%&amp;gt;&lt;br&gt;%name%&lt;br&gt;%createAt%&lt;br&gt;%expireAt%&lt;br&gt;&lt;/font&gt;" placeholders="1" type="Fulfilment" name="Wechat Payment Request" createAt="create_at" expireAt="expire_at" id="3hr6SnEZfDYjpyvEF0oO-70">
          <mxCell style="rounded=1;whiteSpace=wrap;html=1;fillColor=#FF66B3;noLabel=0;comic=0;recursiveResize=1;labelBackgroundColor=none;fontColor=#FFFFFF;strokeColor=#000000;" vertex="1" parent="1">
            <mxGeometry x="700" y="380" width="170" height="100" as="geometry" />
          </mxCell>
        </object>
        <mxCell id="3hr6SnEZfDYjpyvEF0oO-71" style="edgeStyle=orthogonalEdgeStyle;rounded=0;orthogonalLoop=1;jettySize=auto;html=1;exitX=1;exitY=0.5;exitDx=0;exitDy=0;entryX=0.25;entryY=0;entryDx=0;entryDy=0;endArrow=none;endFill=0;fontColor=#FFFFFF;" edge="1" parent="1" source="3hr6SnEZfDYjpyvEF0oO-19" target="3hr6SnEZfDYjpyvEF0oO-69">
          <mxGeometry relative="1" as="geometry">
            <mxPoint x="1260" y="500" as="sourcePoint" />
            <mxPoint x="1360" y="500" as="targetPoint" />
          </mxGeometry>
        </mxCell>
        <mxCell id="3hr6SnEZfDYjpyvEF0oO-72" value="&lt;font color=&quot;#000000&quot;&gt;1&lt;/font&gt;" style="edgeLabel;html=1;align=center;verticalAlign=middle;resizable=0;points=[];labelBackgroundColor=none;fontColor=#FFFFFF;strokeColor=#000000;fillColor=#FFA033;" vertex="1" connectable="0" parent="3hr6SnEZfDYjpyvEF0oO-71">
          <mxGeometry x="-0.82" relative="1" as="geometry">
            <mxPoint y="-10" as="offset" />
          </mxGeometry>
        </mxCell>
        <mxCell id="3hr6SnEZfDYjpyvEF0oO-73" value="1" style="edgeLabel;html=1;align=center;verticalAlign=middle;resizable=0;points=[];labelBackgroundColor=none;fontColor=#000000;strokeColor=#000000;fillColor=#FFA033;" vertex="1" connectable="0" parent="3hr6SnEZfDYjpyvEF0oO-71">
          <mxGeometry x="0.72" y="-1" relative="1" as="geometry">
            <mxPoint x="6" y="-2" as="offset" />
          </mxGeometry>
        </mxCell>
        <mxCell id="3hr6SnEZfDYjpyvEF0oO-74" style="edgeStyle=orthogonalEdgeStyle;rounded=0;orthogonalLoop=1;jettySize=auto;html=1;exitX=1;exitY=0.5;exitDx=0;exitDy=0;entryX=0;entryY=0.5;entryDx=0;entryDy=0;endArrow=none;endFill=0;fontColor=#000000;" edge="1" parent="1" source="3hr6SnEZfDYjpyvEF0oO-70" target="3hr6SnEZfDYjpyvEF0oO-19">
          <mxGeometry relative="1" as="geometry">
            <mxPoint x="890" y="320" as="sourcePoint" />
            <mxPoint x="990" y="320" as="targetPoint" />
          </mxGeometry>
        </mxCell>
        <mxCell id="3hr6SnEZfDYjpyvEF0oO-75" value="1" style="edgeLabel;html=1;align=center;verticalAlign=middle;resizable=0;points=[];labelBackgroundColor=none;fontColor=#000000;strokeColor=#000000;fillColor=#FFA033;" vertex="1" connectable="0" parent="3hr6SnEZfDYjpyvEF0oO-74">
          <mxGeometry x="-0.82" relative="1" as="geometry">
            <mxPoint y="-10" as="offset" />
          </mxGeometry>
        </mxCell>
        <mxCell id="3hr6SnEZfDYjpyvEF0oO-76" value="1" style="edgeLabel;html=1;align=center;verticalAlign=middle;resizable=0;points=[];labelBackgroundColor=none;fontColor=#000000;strokeColor=#000000;fillColor=#FFA033;" vertex="1" connectable="0" parent="3hr6SnEZfDYjpyvEF0oO-74">
          <mxGeometry x="0.72" y="-1" relative="1" as="geometry">
            <mxPoint y="-11" as="offset" />
          </mxGeometry>
        </mxCell>
        <object label="&lt;font color=&quot;#ffffff&quot;&gt;&amp;lt;%type%&amp;gt;&lt;br&gt;%name%&lt;br&gt;%createAt%&lt;br&gt;&lt;/font&gt;" placeholders="1" type="Contract" name="WeChat Payment Contract" createAt="create_at" id="3hr6SnEZfDYjpyvEF0oO-77">
          <mxCell style="rounded=1;whiteSpace=wrap;html=1;fillColor=#FF66B3;noLabel=0;comic=0;recursiveResize=1;labelBackgroundColor=none;fontColor=#000000;strokeColor=#000000;" vertex="1" parent="1">
            <mxGeometry x="490" y="380" width="170" height="100" as="geometry" />
          </mxCell>
        </object>
        <mxCell id="3hr6SnEZfDYjpyvEF0oO-78" style="edgeStyle=orthogonalEdgeStyle;rounded=0;orthogonalLoop=1;jettySize=auto;html=1;exitX=1;exitY=0.5;exitDx=0;exitDy=0;entryX=0;entryY=0.5;entryDx=0;entryDy=0;endArrow=none;endFill=0;fontColor=#000000;" edge="1" parent="1" source="3hr6SnEZfDYjpyvEF0oO-77" target="3hr6SnEZfDYjpyvEF0oO-70">
          <mxGeometry relative="1" as="geometry">
            <mxPoint x="650" y="429.29000000000025" as="sourcePoint" />
            <mxPoint x="710" y="429.29000000000025" as="targetPoint" />
          </mxGeometry>
        </mxCell>
        <mxCell id="3hr6SnEZfDYjpyvEF0oO-79" value="1" style="edgeLabel;html=1;align=center;verticalAlign=middle;resizable=0;points=[];labelBackgroundColor=none;fontColor=#000000;strokeColor=#000000;fillColor=#FFA033;" vertex="1" connectable="0" parent="3hr6SnEZfDYjpyvEF0oO-78">
          <mxGeometry x="-0.82" relative="1" as="geometry">
            <mxPoint y="-10" as="offset" />
          </mxGeometry>
        </mxCell>
        <mxCell id="3hr6SnEZfDYjpyvEF0oO-80" value="1" style="edgeLabel;html=1;align=center;verticalAlign=middle;resizable=0;points=[];labelBackgroundColor=none;fontColor=#000000;strokeColor=#000000;fillColor=#FFA033;" vertex="1" connectable="0" parent="3hr6SnEZfDYjpyvEF0oO-78">
          <mxGeometry x="0.72" y="-1" relative="1" as="geometry">
            <mxPoint y="-11" as="offset" />
          </mxGeometry>
        </mxCell>
        <object label="&lt;font color=&quot;#ffffff&quot;&gt;&amp;lt;%type%&amp;gt;&lt;br&gt;%name%&lt;br&gt;%createAt%&lt;br&gt;&lt;/font&gt;" placeholders="1" type="Fulfilment" name="UnionPay Payment Confirmation" createAt="create_at" id="3hr6SnEZfDYjpyvEF0oO-81">
          <mxCell style="rounded=1;whiteSpace=wrap;html=1;fillColor=#FF66B3;noLabel=0;comic=0;recursiveResize=1;" vertex="1" parent="1">
            <mxGeometry x="1010" y="270" width="170" height="100" as="geometry" />
          </mxCell>
        </object>
        <object label="&lt;font color=&quot;#ffffff&quot;&gt;&amp;lt;%type%&amp;gt;&lt;br&gt;%name%&lt;br&gt;%createAt%&lt;br&gt;%expireAt%&lt;br&gt;&lt;/font&gt;" placeholders="1" type="Fulfilment" name="UnionPay Payment Request" createAt="create_at" expireAt="expire_at" id="3hr6SnEZfDYjpyvEF0oO-82">
          <mxCell style="rounded=1;whiteSpace=wrap;html=1;fillColor=#FF66B3;noLabel=0;comic=0;recursiveResize=1;labelBackgroundColor=none;fontColor=#FFFFFF;strokeColor=#000000;" vertex="1" parent="1">
            <mxGeometry x="800" y="270" width="170" height="100" as="geometry" />
          </mxCell>
        </object>
        <mxCell id="3hr6SnEZfDYjpyvEF0oO-83" style="edgeStyle=orthogonalEdgeStyle;rounded=0;orthogonalLoop=1;jettySize=auto;html=1;exitX=1;exitY=0.5;exitDx=0;exitDy=0;entryX=0;entryY=0.5;entryDx=0;entryDy=0;endArrow=none;endFill=0;fontColor=#000000;" edge="1" parent="1" source="3hr6SnEZfDYjpyvEF0oO-82" target="3hr6SnEZfDYjpyvEF0oO-81">
          <mxGeometry relative="1" as="geometry">
            <mxPoint x="990" y="210" as="sourcePoint" />
            <mxPoint x="1090" y="210" as="targetPoint" />
          </mxGeometry>
        </mxCell>
        <mxCell id="3hr6SnEZfDYjpyvEF0oO-84" value="1" style="edgeLabel;html=1;align=center;verticalAlign=middle;resizable=0;points=[];labelBackgroundColor=none;fontColor=#000000;strokeColor=#000000;fillColor=#FFA033;" vertex="1" connectable="0" parent="3hr6SnEZfDYjpyvEF0oO-83">
          <mxGeometry x="-0.82" relative="1" as="geometry">
            <mxPoint y="-10" as="offset" />
          </mxGeometry>
        </mxCell>
        <mxCell id="3hr6SnEZfDYjpyvEF0oO-85" value="1" style="edgeLabel;html=1;align=center;verticalAlign=middle;resizable=0;points=[];labelBackgroundColor=none;fontColor=#000000;strokeColor=#000000;fillColor=#FFA033;" vertex="1" connectable="0" parent="3hr6SnEZfDYjpyvEF0oO-83">
          <mxGeometry x="0.72" y="-1" relative="1" as="geometry">
            <mxPoint y="-11" as="offset" />
          </mxGeometry>
        </mxCell>
        <object label="&lt;font color=&quot;#ffffff&quot;&gt;&amp;lt;%type%&amp;gt;&lt;br&gt;%name%&lt;br&gt;%createAt%&lt;br&gt;&lt;/font&gt;" placeholders="1" type="Contract" name="UnionPay Payment Contract" createAt="create_at" id="3hr6SnEZfDYjpyvEF0oO-86">
          <mxCell style="rounded=1;whiteSpace=wrap;html=1;fillColor=#FF66B3;noLabel=0;comic=0;recursiveResize=1;labelBackgroundColor=none;fontColor=#000000;strokeColor=#000000;" vertex="1" parent="1">
            <mxGeometry x="590" y="270" width="170" height="100" as="geometry" />
          </mxCell>
        </object>
        <mxCell id="3hr6SnEZfDYjpyvEF0oO-87" style="edgeStyle=orthogonalEdgeStyle;rounded=0;orthogonalLoop=1;jettySize=auto;html=1;exitX=1;exitY=0.5;exitDx=0;exitDy=0;entryX=0;entryY=0.5;entryDx=0;entryDy=0;endArrow=none;endFill=0;fontColor=#000000;" edge="1" parent="1" source="3hr6SnEZfDYjpyvEF0oO-86" target="3hr6SnEZfDYjpyvEF0oO-82">
          <mxGeometry relative="1" as="geometry">
            <mxPoint x="750" y="319.29000000000025" as="sourcePoint" />
            <mxPoint x="810" y="319.29000000000025" as="targetPoint" />
          </mxGeometry>
        </mxCell>
        <mxCell id="3hr6SnEZfDYjpyvEF0oO-88" value="1" style="edgeLabel;html=1;align=center;verticalAlign=middle;resizable=0;points=[];labelBackgroundColor=none;fontColor=#000000;strokeColor=#000000;fillColor=#FFA033;" vertex="1" connectable="0" parent="3hr6SnEZfDYjpyvEF0oO-87">
          <mxGeometry x="-0.82" relative="1" as="geometry">
            <mxPoint y="-10" as="offset" />
          </mxGeometry>
        </mxCell>
        <mxCell id="3hr6SnEZfDYjpyvEF0oO-89" value="1" style="edgeLabel;html=1;align=center;verticalAlign=middle;resizable=0;points=[];labelBackgroundColor=none;fontColor=#000000;strokeColor=#000000;fillColor=#FFA033;" vertex="1" connectable="0" parent="3hr6SnEZfDYjpyvEF0oO-87">
          <mxGeometry x="0.72" y="-1" relative="1" as="geometry">
            <mxPoint y="-11" as="offset" />
          </mxGeometry>
        </mxCell>
        <mxCell id="3hr6SnEZfDYjpyvEF0oO-90" style="edgeStyle=orthogonalEdgeStyle;rounded=0;orthogonalLoop=1;jettySize=auto;html=1;exitX=1;exitY=0.5;exitDx=0;exitDy=0;entryX=0.5;entryY=0;entryDx=0;entryDy=0;endArrow=none;endFill=0;fontColor=#FFFFFF;" edge="1" parent="1" source="3hr6SnEZfDYjpyvEF0oO-81" target="3hr6SnEZfDYjpyvEF0oO-69">
          <mxGeometry relative="1" as="geometry">
            <mxPoint x="1078" y="480" as="sourcePoint" />
            <mxPoint x="1192.5" y="560" as="targetPoint" />
          </mxGeometry>
        </mxCell>
        <mxCell id="3hr6SnEZfDYjpyvEF0oO-91" value="&lt;font color=&quot;#000000&quot;&gt;1&lt;/font&gt;" style="edgeLabel;html=1;align=center;verticalAlign=middle;resizable=0;points=[];labelBackgroundColor=none;fontColor=#FFFFFF;strokeColor=#000000;fillColor=#FFA033;" vertex="1" connectable="0" parent="3hr6SnEZfDYjpyvEF0oO-90">
          <mxGeometry x="-0.82" relative="1" as="geometry">
            <mxPoint y="-10" as="offset" />
          </mxGeometry>
        </mxCell>
        <mxCell id="3hr6SnEZfDYjpyvEF0oO-92" value="1" style="edgeLabel;html=1;align=center;verticalAlign=middle;resizable=0;points=[];labelBackgroundColor=none;fontColor=#000000;strokeColor=#000000;fillColor=#FFA033;" vertex="1" connectable="0" parent="3hr6SnEZfDYjpyvEF0oO-90">
          <mxGeometry x="0.72" y="-1" relative="1" as="geometry">
            <mxPoint x="6" y="-2" as="offset" />
          </mxGeometry>
        </mxCell>
        <mxCell id="3hr6SnEZfDYjpyvEF0oO-93" style="edgeStyle=orthogonalEdgeStyle;rounded=0;orthogonalLoop=1;jettySize=auto;html=1;exitX=1;exitY=0.5;exitDx=0;exitDy=0;endArrow=none;endFill=0;fontColor=#000000;" edge="1" parent="1" source="3hr6SnEZfDYjpyvEF0oO-116">
          <mxGeometry relative="1" as="geometry">
            <mxPoint x="510" y="1070" as="sourcePoint" />
            <mxPoint x="710" y="830" as="targetPoint" />
          </mxGeometry>
        </mxCell>
        <mxCell id="3hr6SnEZfDYjpyvEF0oO-94" value="1" style="edgeLabel;html=1;align=center;verticalAlign=middle;resizable=0;points=[];labelBackgroundColor=none;fontColor=#000000;strokeColor=#000000;fillColor=#FFA033;" vertex="1" connectable="0" parent="3hr6SnEZfDYjpyvEF0oO-93">
          <mxGeometry x="-0.82" relative="1" as="geometry">
            <mxPoint y="-10" as="offset" />
          </mxGeometry>
        </mxCell>
        <mxCell id="3hr6SnEZfDYjpyvEF0oO-95" value="1" style="edgeLabel;html=1;align=center;verticalAlign=middle;resizable=0;points=[];labelBackgroundColor=none;fontColor=#000000;strokeColor=#000000;fillColor=#FFA033;" vertex="1" connectable="0" parent="3hr6SnEZfDYjpyvEF0oO-93">
          <mxGeometry x="0.72" y="-1" relative="1" as="geometry">
            <mxPoint y="-11" as="offset" />
          </mxGeometry>
        </mxCell>
        <mxCell id="3hr6SnEZfDYjpyvEF0oO-96" style="edgeStyle=orthogonalEdgeStyle;rounded=0;orthogonalLoop=1;jettySize=auto;html=1;exitX=0.5;exitY=0;exitDx=0;exitDy=0;entryX=0.5;entryY=1;entryDx=0;entryDy=0;endArrow=none;endFill=0;fontColor=#000000;" edge="1" parent="1" source="3hr6SnEZfDYjpyvEF0oO-27" target="3hr6SnEZfDYjpyvEF0oO-116">
          <mxGeometry relative="1" as="geometry">
            <mxPoint x="495" y="1149.29" as="sourcePoint" />
            <mxPoint x="380" y="1140" as="targetPoint" />
          </mxGeometry>
        </mxCell>
        <mxCell id="3hr6SnEZfDYjpyvEF0oO-97" value="1" style="edgeLabel;html=1;align=center;verticalAlign=middle;resizable=0;points=[];labelBackgroundColor=none;fontColor=#000000;strokeColor=#000000;fillColor=#FFA033;" vertex="1" connectable="0" parent="3hr6SnEZfDYjpyvEF0oO-96">
          <mxGeometry x="-0.82" relative="1" as="geometry">
            <mxPoint y="-10" as="offset" />
          </mxGeometry>
        </mxCell>
        <mxCell id="3hr6SnEZfDYjpyvEF0oO-98" value="1" style="edgeLabel;html=1;align=center;verticalAlign=middle;resizable=0;points=[];labelBackgroundColor=none;fontColor=#000000;strokeColor=#000000;fillColor=#FFA033;" vertex="1" connectable="0" parent="3hr6SnEZfDYjpyvEF0oO-96">
          <mxGeometry x="0.72" y="-1" relative="1" as="geometry">
            <mxPoint y="-11" as="offset" />
          </mxGeometry>
        </mxCell>
        <object label="&lt;font color=&quot;#ffffff&quot;&gt;&amp;lt;%type%&amp;gt;&lt;br&gt;&lt;br&gt;&lt;b&gt;%name%&lt;/b&gt;&lt;br&gt;&lt;/font&gt;" placeholders="1" type="domain" name="Advertisement Recommendation" id="3hr6SnEZfDYjpyvEF0oO-99">
          <mxCell style="rounded=1;whiteSpace=wrap;html=1;noLabel=0;comic=0;recursiveResize=1;fillColor=#FFA033;labelBackgroundColor=none;fontColor=#000000;strokeColor=#000000;" vertex="1" parent="1">
            <mxGeometry x="800" y="1080" width="170" height="100" as="geometry" />
          </mxCell>
        </object>
        <mxCell id="3hr6SnEZfDYjpyvEF0oO-100" style="edgeStyle=orthogonalEdgeStyle;rounded=0;orthogonalLoop=1;jettySize=auto;html=1;exitX=1;exitY=0.75;exitDx=0;exitDy=0;entryX=0.5;entryY=0;entryDx=0;entryDy=0;endArrow=none;endFill=0;fontColor=#000000;" edge="1" parent="1" source="3hr6SnEZfDYjpyvEF0oO-1" target="3hr6SnEZfDYjpyvEF0oO-99">
          <mxGeometry relative="1" as="geometry">
            <mxPoint x="760" y="820" as="sourcePoint" />
            <mxPoint x="860" y="820" as="targetPoint" />
          </mxGeometry>
        </mxCell>
        <mxCell id="3hr6SnEZfDYjpyvEF0oO-101" value="1" style="edgeLabel;html=1;align=center;verticalAlign=middle;resizable=0;points=[];labelBackgroundColor=none;fontColor=#000000;strokeColor=#000000;fillColor=#FFA033;" vertex="1" connectable="0" parent="3hr6SnEZfDYjpyvEF0oO-100">
          <mxGeometry x="-0.82" relative="1" as="geometry">
            <mxPoint y="-10" as="offset" />
          </mxGeometry>
        </mxCell>
        <mxCell id="3hr6SnEZfDYjpyvEF0oO-102" value="1" style="edgeLabel;html=1;align=center;verticalAlign=middle;resizable=0;points=[];labelBackgroundColor=none;fontColor=#000000;strokeColor=#000000;fillColor=#FFA033;" vertex="1" connectable="0" parent="3hr6SnEZfDYjpyvEF0oO-100">
          <mxGeometry x="0.72" y="-1" relative="1" as="geometry">
            <mxPoint y="-11" as="offset" />
          </mxGeometry>
        </mxCell>
        <mxCell id="3hr6SnEZfDYjpyvEF0oO-103" value="&lt;font color=&quot;#ffffff&quot;&gt;Agent&lt;/font&gt;" style="rounded=1;whiteSpace=wrap;html=1;fillColor=#FFa033;strokeColor=#000000;" vertex="1" parent="1">
          <mxGeometry x="1050" y="810" width="50" height="30" as="geometry" />
        </mxCell>
        <object label="&lt;font color=&quot;#ffffff&quot;&gt;&amp;lt;%type%&amp;gt;&lt;br&gt;&lt;br&gt;&lt;b&gt;%name%&lt;/b&gt;&lt;br&gt;&lt;/font&gt;" placeholders="1" type="thing" name="Specified Account" id="3hr6SnEZfDYjpyvEF0oO-104">
          <mxCell style="rounded=1;whiteSpace=wrap;html=1;noLabel=0;comic=0;recursiveResize=1;fillColor=#00994D;labelBackgroundColor=none;fontColor=#000000;strokeColor=#000000;" vertex="1" parent="1">
            <mxGeometry x="1420" y="730" width="170" height="100" as="geometry" />
          </mxCell>
        </object>
        <mxCell id="3hr6SnEZfDYjpyvEF0oO-105" style="edgeStyle=orthogonalEdgeStyle;rounded=0;orthogonalLoop=1;jettySize=auto;html=1;exitX=1;exitY=0.5;exitDx=0;exitDy=0;endArrow=none;endFill=0;entryX=0;entryY=0.5;entryDx=0;entryDy=0;" edge="1" parent="1" source="3hr6SnEZfDYjpyvEF0oO-32" target="3hr6SnEZfDYjpyvEF0oO-104">
          <mxGeometry relative="1" as="geometry">
            <mxPoint x="1350" y="660" as="sourcePoint" />
            <mxPoint x="1460" y="660" as="targetPoint" />
          </mxGeometry>
        </mxCell>
        <mxCell id="3hr6SnEZfDYjpyvEF0oO-106" value="1" style="edgeLabel;html=1;align=center;verticalAlign=middle;resizable=0;points=[];" vertex="1" connectable="0" parent="3hr6SnEZfDYjpyvEF0oO-105">
          <mxGeometry x="-0.82" relative="1" as="geometry">
            <mxPoint y="-10" as="offset" />
          </mxGeometry>
        </mxCell>
        <mxCell id="3hr6SnEZfDYjpyvEF0oO-107" value="1" style="edgeLabel;html=1;align=center;verticalAlign=middle;resizable=0;points=[];" vertex="1" connectable="0" parent="3hr6SnEZfDYjpyvEF0oO-105">
          <mxGeometry x="0.72" y="-1" relative="1" as="geometry">
            <mxPoint y="-11" as="offset" />
          </mxGeometry>
        </mxCell>
        <object label="&lt;font color=&quot;#ffffff&quot;&gt;&amp;lt;%type%&amp;gt;&lt;br&gt;&lt;br&gt;&lt;b&gt;%name%&lt;/b&gt;&lt;br&gt;&lt;/font&gt;" placeholders="1" type="thing" name="Invoice" id="3hr6SnEZfDYjpyvEF0oO-108">
          <mxCell style="rounded=1;whiteSpace=wrap;html=1;noLabel=0;comic=0;recursiveResize=1;fillColor=#00994D;labelBackgroundColor=none;fontColor=#000000;strokeColor=#000000;" vertex="1" parent="1">
            <mxGeometry x="1370" y="1158" width="170" height="100" as="geometry" />
          </mxCell>
        </object>
        <mxCell id="3hr6SnEZfDYjpyvEF0oO-109" style="edgeStyle=orthogonalEdgeStyle;rounded=0;orthogonalLoop=1;jettySize=auto;html=1;exitX=0.5;exitY=1;exitDx=0;exitDy=0;endArrow=none;endFill=0;entryX=0.5;entryY=0;entryDx=0;entryDy=0;" edge="1" parent="1" source="3hr6SnEZfDYjpyvEF0oO-51" target="3hr6SnEZfDYjpyvEF0oO-108">
          <mxGeometry relative="1" as="geometry">
            <mxPoint x="1370" y="1150" as="sourcePoint" />
            <mxPoint x="1430" y="1150" as="targetPoint" />
          </mxGeometry>
        </mxCell>
        <mxCell id="3hr6SnEZfDYjpyvEF0oO-110" value="1" style="edgeLabel;html=1;align=center;verticalAlign=middle;resizable=0;points=[];" vertex="1" connectable="0" parent="3hr6SnEZfDYjpyvEF0oO-109">
          <mxGeometry x="-0.82" relative="1" as="geometry">
            <mxPoint y="-10" as="offset" />
          </mxGeometry>
        </mxCell>
        <mxCell id="3hr6SnEZfDYjpyvEF0oO-111" value="1" style="edgeLabel;html=1;align=center;verticalAlign=middle;resizable=0;points=[];" vertex="1" connectable="0" parent="3hr6SnEZfDYjpyvEF0oO-109">
          <mxGeometry x="0.72" y="-1" relative="1" as="geometry">
            <mxPoint y="-11" as="offset" />
          </mxGeometry>
        </mxCell>
        <mxCell id="3hr6SnEZfDYjpyvEF0oO-112" value="" style="endArrow=none;dashed=1;html=1;dashPattern=1 3;strokeWidth=3;exitX=1;exitY=0;exitDx=0;exitDy=0;rounded=0;fontColor=#000000;" edge="1" parent="1">
          <mxGeometry width="50" height="50" relative="1" as="geometry">
            <mxPoint x="1230" y="560" as="sourcePoint" />
            <mxPoint x="1610" y="170" as="targetPoint" />
            <Array as="points">
              <mxPoint x="1230.4099999999999" y="560" />
            </Array>
          </mxGeometry>
        </mxCell>
        <mxCell id="3hr6SnEZfDYjpyvEF0oO-113" value="" style="endArrow=none;dashed=1;html=1;dashPattern=1 3;strokeWidth=3;exitX=1;exitY=0;exitDx=0;exitDy=0;rounded=0;fontColor=#000000;" edge="1" parent="1">
          <mxGeometry width="50" height="50" relative="1" as="geometry">
            <mxPoint x="1189.5900000000001" y="570" as="sourcePoint" />
            <mxPoint x="60.00000000000023" y="430" as="targetPoint" />
            <Array as="points">
              <mxPoint x="1190" y="570" />
            </Array>
          </mxGeometry>
        </mxCell>
        <mxCell id="3hr6SnEZfDYjpyvEF0oO-114" value="&lt;span style=&quot;font-size: 22px&quot;&gt;第三方支付上下文&lt;/span&gt;" style="text;html=1;strokeColor=none;fillColor=none;align=center;verticalAlign=middle;whiteSpace=wrap;rounded=0;labelBackgroundColor=none;fontColor=#000000;" vertex="1" parent="1">
          <mxGeometry x="475" y="170" width="200" height="80" as="geometry" />
        </mxCell>
        <mxCell id="3hr6SnEZfDYjpyvEF0oO-115" value="&lt;span style=&quot;font-size: 22px&quot;&gt;房屋推广上下文&lt;/span&gt;" style="text;html=1;strokeColor=none;fillColor=none;align=center;verticalAlign=middle;whiteSpace=wrap;rounded=0;labelBackgroundColor=none;fontColor=#000000;" vertex="1" parent="1">
          <mxGeometry x="760" y="1270" width="200" height="80" as="geometry" />
        </mxCell>
        <object label="&lt;font color=&quot;#ffffff&quot;&gt;&amp;lt;%type%&amp;gt;&lt;br&gt;&lt;br&gt;&lt;b&gt;%name%&lt;/b&gt;&lt;br&gt;&lt;/font&gt;" placeholders="1" type="3rd System" name="AdX" id="3hr6SnEZfDYjpyvEF0oO-116">
          <mxCell style="rounded=1;whiteSpace=wrap;html=1;noLabel=0;comic=0;recursiveResize=1;fillColor=#FFA033;" vertex="1" parent="1">
            <mxGeometry x="285" y="1030" width="170" height="100" as="geometry" />
          </mxCell>
        </object>
      </root>
    </mxGraphModel>
  </diagram>
</mxfile>
